<?xml version="1.0" encoding="utf-8"?>
<!-- Generator: Adobe Illustrator 27.4.1, SVG Export Plug-In . SVG Version: 6.00 Build 0)  -->
<svg version="1.1" id="_圖層_2" xmlns="http://www.w3.org/2000/svg" xmlns:xlink="http://www.w3.org/1999/xlink" x="0px" y="0px"
	 viewBox="0 0 224.99 72.37" style="enable-background:new 0 0 224.99 72.37;" xml:space="preserve">
<style type="text/css">
	.st0{fill:#231815;}
	.st1{fill:#FFFFFF;}
	.st2{fill:url(#SVGID_1_);}
	.st3{fill:url(#SVGID_00000160894684501769950730000007627533133461132431_);}
	.st4{fill:url(#SVGID_00000104694081548151737570000013134232203791910304_);}
	.st5{fill:url(#SVGID_00000051367559527049453800000011446913044393985697_);}
</style>
<g>
	<g>
		<g>
			<g>
				<path class="st0" d="M95.81,46.32h2.82l4.05,11.53l0,0l4.05-11.53h2.82v14.1h-1.84V48.78l0,0l-4.05,11.65h-1.84l-4.05-11.65l0,0
					v11.65h-1.84L95.81,46.32L95.81,46.32z"/>
				<path class="st0" d="M119.11,60.3c-0.86,0.25-1.35,0.37-2.45,0.37c-2.94,0-4.78-1.72-4.78-5.52c0-4.17,2.7-4.66,3.92-4.66
					c2.33,0,3.56,1.59,3.56,3.92v0.49h-5.64c0,1.84,0.98,4.41,3.56,4.41c0.86,0,1.47-0.25,1.84-0.37
					C119.11,58.83,119.11,60.3,119.11,60.3z M117.51,53.56c0-0.61-0.37-1.72-1.72-1.72c-1.47,0-1.96,1.23-1.96,1.72H117.51z"/>
				<path class="st0" d="M129.16,60.79c0,2.82-1.59,3.92-4.54,3.92c-1.47,0-2.58-0.25-2.94-0.37v-1.84
					c0.61,0.25,1.59,0.74,2.82,0.74c2.82,0,2.82-1.96,2.82-3.07v-1.47l0,0c-0.25,0.49-0.98,1.59-2.7,1.59
					c-2.58,0-3.31-2.33-3.31-4.91c0-2.7,0.98-5.03,3.43-5.03c1.59,0,2.33,1.1,2.58,1.59l0,0v-1.35h1.84
					C129.16,50.62,129.16,60.79,129.16,60.79z M125.24,58.95c1.59,0,2.21-2.08,2.21-3.68c0-1.47-0.49-3.43-2.08-3.43
					c-1.59,0-1.96,2.21-1.96,3.56C123.28,56.75,123.52,58.95,125.24,58.95z"/>
				<path class="st0" d="M136.77,59.2L136.77,59.2c-0.25,0.49-1.1,1.47-2.58,1.47c-1.84,0-2.7-1.1-2.7-2.58
					c0-2.58,2.82-3.19,5.27-3.19v-1.72c-0.12-0.98-0.86-1.23-1.47-1.23c-1.1,0-1.59,0.74-1.59,1.47h-1.96
					c0-1.59,0.98-2.94,3.68-2.94c3.19,0,3.19,2.45,3.19,3.31v6.62h-1.84V59.2L136.77,59.2z M136.4,56.01
					c-1.47,0-2.94,0.61-2.94,1.84c0,0.74,0.49,1.23,1.1,1.23c1.23,0,2.21-1.47,2.21-2.58v-0.49H136.4z"/>
				<path class="st0" d="M151.36,52.7c1.35,0.74,2.94,1.59,2.94,3.92c0,2.7-2.21,4.05-5.03,4.05c-1.72,0-3.19-0.37-3.56-0.61v-2.08
					c0.86,0.49,2.21,0.98,3.68,0.98c1.35,0,2.7-0.61,2.7-2.08c0-1.47-1.23-2.08-2.33-2.7l-1.35-0.74c-1.35-0.74-3.07-1.59-3.07-3.68
					c0-2.45,2.08-3.68,4.66-3.68c1.35,0,2.7,0.25,3.19,0.37v1.96c-0.25-0.12-1.84-0.74-3.31-0.74c-1.35,0-2.33,0.61-2.33,1.84
					c0,1.1,1.23,1.84,2.33,2.33L151.36,52.7z"/>
				<path class="st0" d="M163.13,60.3c-0.74,0.25-1.35,0.37-2.45,0.37c-2.94,0-4.78-1.72-4.78-5.52c0-4.17,2.7-4.66,3.92-4.66
					c2.33,0,3.56,1.59,3.56,3.92v0.49h-5.64c0,1.84,0.98,4.41,3.56,4.41c0.86,0,1.35-0.25,1.84-0.37L163.13,60.3L163.13,60.3z
					 M161.54,53.56c0-0.61-0.37-1.72-1.72-1.72c-1.47,0-1.96,1.23-1.96,1.72H161.54z"/>
				<path class="st0" d="M172.45,60.18c-0.74,0.25-1.59,0.37-2.7,0.37c-3.68,0-4.78-3.07-4.78-5.4c0-2.7,1.23-4.78,4.17-4.78
					c2.7,0,3.43,1.84,3.43,3.43h-2.08c0-0.74-0.12-1.96-1.47-1.96c-1.23,0-1.96,1.23-1.96,2.94c0,1.96,0.74,4.29,3.8,4.29
					c0.49,0,0.98,0,1.59-0.25L172.45,60.18L172.45,60.18z"/>
				<path class="st0" d="M179.93,58.22L179.93,58.22c-0.37,0.86-1.1,2.33-3.07,2.33c-2.21,0-2.58-1.96-2.58-3.19v-6.74h1.84v5.27
					c0,1.84,0,2.82,1.35,2.82c1.47,0,2.58-2.08,2.58-3.92v-4.17h1.84v9.69h-1.84L179.93,58.22L179.93,58.22z"/>
				<path class="st0" d="M184.84,50.62h1.84v1.96l0,0c0.25-0.74,1.1-2.21,2.94-2.21v1.96c-1.72,0-3.07,0.86-3.07,3.8v4.17h-1.84
					L184.84,50.62L184.84,50.62z"/>
				<path class="st0" d="M191.34,46.32h2.21v2.08h-2.21V46.32z M191.58,50.62h1.84v9.69h-1.84V50.62z"/>
				<path class="st0" d="M201.51,60.43c-0.49,0.12-0.98,0.12-1.47,0.12c-2.33,0-2.94-0.98-2.94-2.33v-6.13h-1.72v-1.47h1.72v-2.33
					l1.84-1.1v3.43h2.7v1.47h-2.7v5.15c0,0.86,0.12,1.84,1.59,1.84c0.37,0,0.74,0,0.98-0.12L201.51,60.43L201.51,60.43z"/>
				<path class="st0" d="M203.48,46.32h2.21v2.08h-2.21V46.32z M203.72,50.62h1.84v9.69h-1.84V50.62z"/>
				<path class="st0" d="M215.25,60.3c-0.74,0.25-1.35,0.37-2.45,0.37c-2.94,0-4.78-1.72-4.78-5.52c0-4.17,2.7-4.66,3.92-4.66
					c2.33,0,3.56,1.59,3.56,3.92v0.49h-5.64c0,1.84,0.98,4.41,3.56,4.41c0.86,0,1.35-0.25,1.84-0.37L215.25,60.3L215.25,60.3z
					 M213.53,53.56c0-0.61-0.37-1.72-1.72-1.72c-1.47,0-1.96,1.23-1.96,1.72H213.53z"/>
				<path class="st0" d="M220.89,54.78c0.98,0.61,2.21,1.23,2.21,2.82c0,2.08-1.47,2.94-3.68,2.94c-1.35,0-2.21-0.25-2.58-0.37
					v-1.59c0.12,0.12,1.47,0.61,2.45,0.61c0.86,0,1.96-0.25,1.96-1.23c0-0.74-0.86-1.1-1.59-1.59l-0.98-0.61
					c-0.86-0.61-1.96-1.23-1.96-2.58c0-1.72,1.47-2.7,3.43-2.7c0.98,0,1.72,0.25,2.21,0.37v1.59c-0.25-0.12-1.1-0.61-2.21-0.61
					c-0.74,0-1.59,0.37-1.59,0.98s0.74,0.98,1.35,1.47L220.89,54.78z"/>
			</g>
		</g>
		<g>
			<path class="st0" d="M102.8,11.25h2.45v13c-0.12,3.56-0.74,6.38-1.96,8.46c-0.74,1.23-1.59,2.08-2.7,2.82
				c-1.1,0.74-2.82,1.35-4.91,1.84l-1.47-2.33c1.47-0.12,3.07-0.61,4.41-1.23c2.58-1.35,3.92-4.17,4.05-8.46
				c-1.96,1.47-4.29,3.07-6.99,4.66l-1.23-2.33c3.56-1.96,6.38-3.68,8.34-5.27L102.8,11.25L102.8,11.25z M97.03,13.46
				c1.47,1.59,3.07,3.8,4.54,6.5l-2.08,1.35c-1.72-2.82-3.19-4.91-4.41-6.38L97.03,13.46z M111.14,11.25v21.83
				c0,0.37,0.12,0.74,0.37,0.98c0.25,0.25,0.61,0.37,0.98,0.37h4.17c0.25,0,0.49-0.12,0.74-0.25c0.12-0.12,0.25-1.23,0.37-3.56
				l2.33,0.37c-0.25,3.07-0.49,4.66-0.74,4.91c-0.49,0.61-1.1,0.98-1.59,0.98h-6.5c-0.61,0-1.23-0.37-1.72-0.86
				c-0.49-0.49-0.74-1.1-0.74-1.59V11.25H111.14z M119.47,14.07c-1.35,2.08-3.19,4.29-5.64,6.62l-1.84-1.59
				c2.58-2.58,4.41-4.66,5.52-6.5L119.47,14.07z M113.59,22.17c2.08,1.23,4.17,2.94,6.62,5.27l-1.59,1.84
				c-2.58-2.33-4.78-4.05-6.5-5.15L113.59,22.17z"/>
			<path class="st0" d="M135.17,33.08h-3.92c-0.25,0-0.25-0.12-0.25-0.25V28.3c0-0.12,0.12-0.25,0.25-0.25h20.6
				c0.25,0,0.25,0.12,0.25,0.25v4.54c0,0.25-0.12,0.25-0.25,0.25h-3.68l-0.74,1.84h7.11v2.21h-26v-2.21h7.36L135.17,33.08z
				 M154.3,25.11v1.96h-25.26v-1.96H154.3z M143.76,20.57v-1.72h2.45v-1.35h-2.45v-1.72h2.45v-1.47h-2.58V12.6h2.58v-1.59h1.96v1.47
				h2.45v1.72h-2.45v1.47h2.33v1.72h-2.33v1.35h2.45v1.72h-2.45v1.35h3.07c0.25,0,0.37-0.12,0.37-0.37v-10.3h2.21v11.65
				c0,0.61-0.37,0.98-0.98,0.98h-22.56c-0.61,0-0.98-0.37-0.98-0.98V11.13h2.21v10.18c0,0.25,0.12,0.37,0.37,0.37h3.07v-1.35h-2.45
				v-1.72h2.45v-1.47h-2.45v-1.72h2.33v-1.35h-2.45v-1.72h2.45v-1.35h1.96v1.47h2.21v1.72h-2.21v1.35h2.21v1.72h-2.21v1.47h2.33
				v1.72h-2.33v1.35h3.43V10.76h2.21v10.91h3.68v-1.35L143.76,20.57L143.76,20.57z M133.33,29.77
				C133.21,29.77,133.21,29.89,133.33,29.77l-0.12,1.23l0.12,0.12h16.68l0.12-0.12v-1.23l-0.12-0.12h-16.68V29.77z M145.1,34.92
				l0.74-1.47l0.12-0.37h-8.46l0.74,1.84H145.1z"/>
			<path class="st0" d="M162.39,15.91h8.46v2.21h-8.46V15.91z M164.85,35.9v0.74h-2.33V28.3c0-0.49,0.25-0.74,0.74-0.74h6.38
				c0.49,0,0.74,0.25,0.74,0.74v6.87c0,0.49-0.25,0.74-0.74,0.74H164.85L164.85,35.9z M163.01,12.11h6.87v2.21h-6.87V12.11z
				 M163.01,19.96H170v2.21h-6.99V19.96z M163.01,23.88H170v2.21h-6.99V23.88z M167.79,29.77h-2.45c-0.25,0-0.37,0.12-0.37,0.37
				v3.68h2.82c0.37,0,0.49-0.12,0.49-0.49v-3.19C168.16,29.89,168.04,29.77,167.79,29.77z M175.15,20.33
				c-0.12,0-0.12,0.12-0.12,0.12c-0.86,0.61-1.72,1.23-2.7,1.72l-1.35-1.84c0.49-0.25,1.47-0.86,3.07-1.72
				c-0.61-0.61-1.47-1.23-2.58-2.08l1.47-1.59c1.47,1.23,2.33,1.96,2.7,2.33c1.1-1.1,1.96-2.08,2.7-3.19h-4.91v-2.08h6.62
				c0.37,0,0.61,0.12,0.74,0.37c0.37,0.49,0.74,0.98,0.98,1.47c0.86-0.98,1.59-1.84,1.96-2.58l1.59,1.35
				c-0.61,0.86-1.35,1.84-2.33,2.94c0.25,0.37,0.49,0.61,0.86,0.98c1.1-1.23,1.84-2.21,2.45-3.07l1.72,1.23
				c-0.61,0.98-1.47,2.08-2.58,3.31c0.98,0.74,1.96,1.47,3.19,2.21l-1.72,1.72c-0.61-0.37-1.23-0.86-1.84-1.23v1.47H174.9
				L175.15,20.33L175.15,20.33z M183.85,34.92h4.54v2.21h-16.19v-2.21h4.29c-0.37-1.47-0.61-2.82-0.98-4.05h-1.84
				c-0.37,0-0.61-0.25-0.61-0.61V24c0-0.37,0.25-0.61,0.61-0.61h12.88c0.37,0,0.61,0.25,0.61,0.61v6.25c0,0.37-0.25,0.61-0.61,0.61
				h-1.72c-0.12,0.49-0.25,1.23-0.49,1.96C184.22,33.57,184.1,34.31,183.85,34.92z M184.96,25.6h-9.57c-0.12,0-0.12,0-0.12,0.12
				v2.82c0,0.12,0,0.12,0.12,0.12h9.57c0.12,0,0.12,0,0.12-0.12L184.96,25.6L184.96,25.6z M175.88,19.71h8.58
				c-1.35-1.23-2.82-2.82-4.17-4.78C179.2,16.52,177.72,18.12,175.88,19.71z M182.38,31.98c0.12-0.49,0.25-0.86,0.25-1.23h-4.66
				c0.37,1.47,0.74,2.82,0.98,4.05h2.7C181.77,34.06,182.14,33.08,182.38,31.98z"/>
			<path class="st0" d="M207.64,29.16h-4.91v-1.59c-1.1,1.23-2.58,2.21-4.05,3.07l-1.84-1.84c2.33-1.47,4.41-3.07,6.25-4.78h-5.76
				v-2.33h7.73c0.74-0.98,1.35-1.96,1.84-2.94l0,0h-8.46V16.4h9.44c0.49-1.59,0.74-3.43,0.98-5.4l2.58,0.25
				c-0.25,1.35-0.61,3.07-1.1,5.15h3.56c1.35-2.08,2.33-3.8,2.94-5.27l2.21,1.1c-0.49,1.23-1.23,2.58-2.21,4.05h5.27v2.33h-8.22
				c0.61,1.1,1.23,2.21,1.72,3.07h7.48V24h-5.64c1.47,1.59,3.56,3.19,6.13,4.66l-1.96,1.84c-0.98-0.74-1.96-1.35-2.82-2.21
				c0,1.72,0,3.19-0.12,4.54c-0.12,1.35-0.37,2.45-0.86,3.07s-1.1,0.98-1.84,1.23c-1.35,0.49-3.31,0.25-5.89-0.37v-2.82
				c1.1,0.49,1.96,0.74,2.7,0.86c1.23,0.25,2.21,0,2.94-0.61c0.37-0.37,0.49-0.86,0.61-1.59c0.12-1.84,0.12-2.94,0-3.19
				c-0.12-0.12-0.12-0.25-0.25-0.25h-5.4c-0.25,0.86-0.74,1.59-1.1,2.45c-0.25,0.25-0.37,0.61-0.61,0.86
				c-2.08,2.58-5.52,4.29-10.3,4.91l-0.61-2.58c1.1-0.12,2.21-0.25,3.07-0.49C204.21,33.45,206.54,31.73,207.64,29.16z M200.9,12.48
				l1.96-1.47c0.86,0.98,1.72,2.21,2.58,3.68l-2.08,1.35C202.49,14.44,201.64,13.21,200.9,12.48z M203.48,26.83h13.24
				c-0.49-0.49-1.23-1.35-2.45-2.82h-8.22C205.56,24.74,204.7,25.72,203.48,26.83z M212.67,21.67c-0.49-0.98-1.1-1.96-1.59-3.07
				h-1.72c-0.25,0.49-0.74,1.47-1.59,3.07H212.67z"/>
		</g>
	</g>
	<g>
		<g>
			<g>
				<path class="st1" d="M3.22,35.9c0-19.38,15.7-35.07,35.07-35.07s35.07,15.7,35.07,35.07s-15.7,35.07-35.07,35.07
					S3.22,55.28,3.22,35.9z"/>
			</g>
			
				<linearGradient id="SVGID_1_" gradientUnits="userSpaceOnUse" x1="-8195.6064" y1="-25811.7461" x2="-9104.8115" y2="-25811.7461" gradientTransform="matrix(-0.0605 0 0 -0.0605 -483.9931 -1543.2468)">
				<stop  offset="0" style="stop-color:#FFFFFF"/>
				<stop  offset="0.1488" style="stop-color:#E5D9BB"/>
				<stop  offset="0.3996" style="stop-color:#BA9C4C"/>
				<stop  offset="0.5112" style="stop-color:#A98320"/>
				<stop  offset="0.6407" style="stop-color:#A57F21"/>
				<stop  offset="0.7811" style="stop-color:#987325"/>
				<stop  offset="0.9261" style="stop-color:#825F2C"/>
				<stop  offset="1" style="stop-color:#745230"/>
			</linearGradient>
			<path class="st2" d="M12.54,19.96c6.38-4.54,15.45-7.36,25.63-7.36s19.13,2.82,25.63,7.36c5.89,4.17,9.44,9.81,9.44,15.94
				c0-13.12-7.11-24.53-17.78-30.53c-4.91-2.7-10.42-4.41-16.31-4.54c0,0,0,0-0.12,0c-0.25,0-0.61,0-0.86,0l0,0l0,0
				c-0.25,0-0.61,0-0.86,0c0,0,0,0-0.12,0c-5.89,0.25-11.4,1.84-16.31,4.66c-5.15,3.19-8.46,7.85-8.46,13
				C12.54,18.98,12.54,19.47,12.54,19.96z"/>
			
				<linearGradient id="SVGID_00000175305403957289544410000010664441067518654881_" gradientUnits="userSpaceOnUse" x1="-8729.5645" y1="-25624.4004" x2="-9098.0693" y2="-26492.543" gradientTransform="matrix(-0.0605 0 0 -0.0605 -483.9931 -1543.2468)">
				<stop  offset="0" style="stop-color:#FFFFFF"/>
				<stop  offset="0.0293" style="stop-color:#F9F6EE"/>
				<stop  offset="0.1641" style="stop-color:#DDCDA6"/>
				<stop  offset="0.285" style="stop-color:#C6AD6C"/>
				<stop  offset="0.3878" style="stop-color:#B69643"/>
				<stop  offset="0.4684" style="stop-color:#AD8829"/>
				<stop  offset="0.5169" style="stop-color:#A98320"/>
				<stop  offset="0.7465" style="stop-color:#8E6A28"/>
				<stop  offset="1" style="stop-color:#745230"/>
			</linearGradient>
			<path style="fill:url(#SVGID_00000175305403957289544410000010664441067518654881_);" d="M63.8,51.84
				c0.12,0.49,0.12,0.98,0.12,1.59c0,5.15-3.31,9.81-8.46,13c10.67-6.01,17.78-17.41,17.78-30.53c0-6.13-3.56-11.77-9.44-15.94
				c-6.38-4.54-15.45-7.36-25.63-7.36v23.3C51.54,35.9,62.57,42.89,63.8,51.84z"/>
			
				<linearGradient id="SVGID_00000130633648813560555730000008603904678336265392_" gradientUnits="userSpaceOnUse" x1="9324.2666" y1="26591.875" x2="8415.0312" y2="26591.875" gradientTransform="matrix(0.0605 0 0 0.0605 -499.5852 -1555.3727)">
				<stop  offset="0" style="stop-color:#FFFFFF"/>
				<stop  offset="0.1488" style="stop-color:#E5D9BB"/>
				<stop  offset="0.3996" style="stop-color:#BA9C4C"/>
				<stop  offset="0.5112" style="stop-color:#A98320"/>
				<stop  offset="0.6407" style="stop-color:#A57F21"/>
				<stop  offset="0.7811" style="stop-color:#987325"/>
				<stop  offset="0.9261" style="stop-color:#825F2C"/>
				<stop  offset="1" style="stop-color:#745230"/>
			</linearGradient>
			<path style="fill:url(#SVGID_00000130633648813560555730000008603904678336265392_);" d="M63.8,51.84
				c-6.38,4.54-15.45,7.36-25.63,7.36s-19.13-2.82-25.63-7.36C6.66,47.67,3.1,42.03,3.1,35.9c0,13.12,7.11,24.4,17.78,30.53
				c4.78,2.7,10.42,4.41,16.31,4.54c0,0,0,0,0.12,0c0.25,0,0.61,0,0.86,0l0,0l0,0c0.25,0,0.61,0,0.86,0c0,0,0,0,0.12,0
				c5.89-0.12,11.53-1.84,16.31-4.54c5.15-3.19,8.46-7.85,8.46-13C63.8,52.95,63.8,52.33,63.8,51.84z"/>
			
				<linearGradient id="SVGID_00000044145518979953080750000014094890262431194005_" gradientUnits="userSpaceOnUse" x1="8790.2295" y1="26780.2168" x2="8421.7627" y2="25912.1621" gradientTransform="matrix(0.0605 0 0 0.0605 -499.5852 -1555.3727)">
				<stop  offset="0" style="stop-color:#FFFFFF"/>
				<stop  offset="0.0293" style="stop-color:#F9F6EE"/>
				<stop  offset="0.1641" style="stop-color:#DDCDA6"/>
				<stop  offset="0.285" style="stop-color:#C6AD6C"/>
				<stop  offset="0.3878" style="stop-color:#B69643"/>
				<stop  offset="0.4684" style="stop-color:#AD8829"/>
				<stop  offset="0.5169" style="stop-color:#A98320"/>
				<stop  offset="0.7465" style="stop-color:#8E6A28"/>
				<stop  offset="1" style="stop-color:#745230"/>
			</linearGradient>
			<path style="fill:url(#SVGID_00000044145518979953080750000014094890262431194005_);" d="M12.54,19.96
				c-0.12-0.49-0.12-1.1-0.12-1.59c0-5.15,3.19-9.81,8.46-13C10.34,11.5,3.1,22.9,3.1,35.9c0,6.13,3.56,11.77,9.44,15.94
				c6.38,4.54,15.45,7.36,25.63,7.36V35.9C24.81,35.9,13.77,28.91,12.54,19.96z"/>
		</g>
	</g>
</g>
</svg>
