<?xml version="1.0" encoding="utf-8"?>
<!-- Generator: Adobe Illustrator 27.4.1, SVG Export Plug-In . SVG Version: 6.00 Build 0)  -->
<svg version="1.1" id="圖層_1" xmlns="http://www.w3.org/2000/svg" xmlns:xlink="http://www.w3.org/1999/xlink" x="0px" y="0px"
	 viewBox="0 0 43 28.5" style="enable-background:new 0 0 43 28.5;" xml:space="preserve">
<style type="text/css">
	.st0{fill:#FFFFFF;stroke:#F94B81;stroke-linecap:round;stroke-linejoin:round;stroke-miterlimit:10;}
	.st1{fill:#F94B81;stroke:#F94B81;stroke-width:0.5;stroke-linecap:round;stroke-linejoin:round;stroke-miterlimit:10;}
	.st2{fill:#F94B81;}
</style>
<g>
	<path class="st0" d="M35.4,13.3h-1.9c-0.6-2.1-1.9-3.9-3.7-5.2V4.5c0,0-1.9,0-3.3,1.8c-1.4-0.5-2.8-0.8-4.4-0.8
		c-6.5,0-11.8,4.8-11.8,10.7c0,3.4,1.8,5.9,4.5,7.5c0,0,0,0.1-0.1,0.1L14,26c-0.2,0.5,0.2,1.1,0.7,1.3l1.4,0.4
		c0.5,0.2,1.1-0.2,1.3-0.7l0.6-2.1c1.3,0.3,2.6,0.5,4,0.5s2.8-0.2,4.1-0.5l0.6,2.1c0.2,0.5,0.7,0.9,1.3,0.7l1.4-0.4
		c0.5-0.2,0.9-0.7,0.7-1.3l-0.7-2.2c0,0,0-0.1-0.1-0.1c2-1.1,3.4-2.7,4.1-4.8h2c0.6,0,1-0.5,1-1v-3.5C36.4,13.8,35.9,13.3,35.4,13.3
		z"/>
	<circle class="st1" cx="29.4" cy="12.7" r="0.6"/>
</g>
<g>
	<circle class="st0" cx="11.6" cy="7.9" r="7"/>
	<path class="st2" d="M14.2,8.2c-0.2-0.3-0.6-0.6-1-0.7c-0.3-0.1-0.7-0.2-1.1-0.3v-2c0.4,0,0.8,0.1,1.2,0.2c0.3,0.1,0.6,0.1,0.8-0.2
		c0.1-0.1,0.2-0.3,0.2-0.5c0-0.3-0.2-0.5-0.5-0.7c-0.5-0.2-1-0.3-1.6-0.3V3.3c0-0.2-0.1-0.3-0.2-0.4c-0.4-0.4-1-0.1-1,0.4
		c0,0,0,0.5,0,0.5c-0.8,0-1.7,0.5-2,1.2C8.8,5.4,8.7,5.7,8.7,6.1c0,0.4,0.1,0.8,0.3,1.1C9.2,7.6,9.6,7.8,10,8c0.3,0.1,0.6,0.3,1,0.4
		v1.9c-0.5,0-1-0.2-1.4-0.4C9.4,9.8,9,9.8,8.8,10c-0.1,0.1-0.2,0.3-0.2,0.5c0,0.1,0,0.3,0.1,0.4C8.8,11,8.9,11.1,9,11.2
		c0.6,0.3,1.3,0.4,1.9,0.5v0.5c0,0.2,0.1,0.3,0.2,0.4c0.1,0.1,0.2,0.2,0.4,0.2s0.3-0.1,0.4-0.2c0.1-0.1,0.2-0.2,0.2-0.4v-0.5
		c0.4,0,0.8-0.2,1.1-0.3c0.4-0.2,0.7-0.5,0.9-0.8s0.3-0.7,0.3-1.1C14.5,9,14.4,8.5,14.2,8.2z M13.1,9.4c0,0.3-0.1,0.8-0.9,0.9V8.7
		c0.3,0.1,0.6,0.2,0.7,0.3S13.1,9.2,13.1,9.4z M11,5.2v1.6c-0.3-0.1-0.5-0.2-0.6-0.3C9.8,5.9,10.5,5.4,11,5.2z"/>
</g>
</svg>
